<svg width="13" height="18" viewBox="0 0 13 18" fill="none" xmlns="http://www.w3.org/2000/svg">
<path d="M11.4061 8.18291L7.05584 1.25553C6.99273 1.16694 6.90935 1.09473 6.81266 1.0449C6.71597 0.995065 6.60877 0.969067 6.5 0.969067C6.39123 0.969067 6.28403 0.995065 6.18734 1.0449C6.09065 1.09473 6.00727 1.16694 5.94416 1.25553L1.57419 8.21572C0.967081 9.19502 0.628903 10.3171 0.59375 11.4688C0.59375 13.0352 1.21601 14.5375 2.32365 15.6451C3.43129 16.7527 4.93357 17.375 6.5 17.375C8.06643 17.375 9.56871 16.7527 10.6763 15.6451C11.784 14.5375 12.4062 13.0352 12.4062 11.4688C12.3685 10.3044 12.0235 9.1708 11.4061 8.18291ZM6.5 16.0625C5.28214 16.0609 4.11461 15.5765 3.25345 14.7153C2.3923 13.8541 1.90781 12.6866 1.90625 11.4688C1.94113 10.551 2.21679 9.65866 2.70556 8.88116L3.31916 7.90334L9.93022 14.5144C9.50084 15.0009 8.97297 15.3905 8.3816 15.6575C7.79023 15.9245 7.14886 16.0628 6.5 16.0632V16.0625Z" fill="black"/>
</svg>
