<svg width="15" height="21" viewBox="0 0 15 21" fill="none" xmlns="http://www.w3.org/2000/svg">
<path d="M9.25 4.8125C9.25 3.76821 8.83516 2.76669 8.09673 2.02827C7.35831 1.28984 6.35679 0.875 5.3125 0.875C4.26821 0.875 3.26669 1.28984 2.52827 2.02827C1.78984 2.76669 1.375 3.76821 1.375 4.8125V11.375C0.770239 12.0603 0.354863 12.8916 0.169962 13.7867C-0.0149392 14.6818 0.0370412 15.6097 0.320761 16.4785C0.604482 17.3473 1.11011 18.127 1.78763 18.7405C2.46516 19.354 3.2911 19.7799 4.18375 19.9762C4.5517 20.0602 4.92663 20.11 5.30375 20.125C6.32004 20.1314 7.31636 19.8427 8.17177 19.294C9.02719 18.7452 9.70494 17.9599 10.1228 17.0335C10.5406 16.107 10.6805 15.0792 10.5256 14.0748C10.3707 13.0704 9.92756 12.1325 9.25 11.375V4.8125ZM7.5 17.5963C6.80381 18.2135 5.89091 18.529 4.96214 18.4732C4.03336 18.4174 3.16479 17.9949 2.5475 17.2987C1.93021 16.6026 1.61476 15.6897 1.67056 14.7609C1.72635 13.8321 2.14881 12.9635 2.845 12.3462C2.92768 12.2652 2.99345 12.1686 3.03851 12.0619C3.08357 11.9553 3.10702 11.8408 3.1075 11.725V4.8125C3.1075 4.23234 3.33797 3.67594 3.74821 3.2657C4.15844 2.85547 4.71484 2.625 5.295 2.625C5.87516 2.625 6.43156 2.85547 6.8418 3.2657C7.25203 3.67594 7.4825 4.23234 7.4825 4.8125V11.76C7.48298 11.8758 7.50643 11.9903 7.55149 12.0969C7.59655 12.2036 7.66232 12.3002 7.745 12.3812C8.10266 12.7268 8.38258 13.1445 8.56612 13.6067C8.74966 14.0689 8.8326 14.5649 8.80942 15.0616C8.78624 15.5584 8.65747 16.0445 8.43168 16.4876C8.2059 16.9307 7.88828 17.3205 7.5 17.6313V17.5963ZM6.1875 13.37V4.8125C6.1875 4.58044 6.09531 4.35788 5.93122 4.19378C5.76713 4.02969 5.54457 3.9375 5.3125 3.9375C5.08044 3.9375 4.85788 4.02969 4.69378 4.19378C4.52969 4.35788 4.4375 4.58044 4.4375 4.8125V13.37C4.17301 13.5227 3.95308 13.742 3.79958 14.006C3.64608 14.27 3.56434 14.5696 3.5625 14.875C3.5625 15.3391 3.74688 15.7842 4.07507 16.1124C4.40325 16.4406 4.84837 16.625 5.3125 16.625C5.77663 16.625 6.22175 16.4406 6.54994 16.1124C6.87813 15.7842 7.0625 15.3391 7.0625 14.875C7.06066 14.5696 6.97892 14.27 6.82542 14.006C6.67192 13.742 6.45199 13.5227 6.1875 13.37ZM14.0625 2.1875H11.4375C11.2054 2.1875 10.9829 2.27969 10.8188 2.44378C10.6547 2.60788 10.5625 2.83044 10.5625 3.0625C10.5625 3.29456 10.6547 3.51712 10.8188 3.68122C10.9829 3.84531 11.2054 3.9375 11.4375 3.9375H14.0625C14.2946 3.9375 14.5171 3.84531 14.6812 3.68122C14.8453 3.51712 14.9375 3.29456 14.9375 3.0625C14.9375 2.83044 14.8453 2.60788 14.6812 2.44378C14.5171 2.27969 14.2946 2.1875 14.0625 2.1875Z" fill="black"/>
</svg>
